{
  "accessors": [
    {
      "bufferView": 2,
      "componentType": 5126,
      "count": 66,
      "max": [
        3.4280710220336914,
        8.642918586730957,
        5.128841876983643
      ],
      "min": [
        -3.5176820755004883,
        -8.32414436340332,
        3.9835450649261475
      ],
      "type": "VEC3"
    },
    {
      "bufferView": 2,
      "byteOffset": 792,
      "componentType": 5126,
      "count": 66,
      "max": [
        0.9837151169776917,
        0.8601521849632263,
        0.5908138751983643
      ],
      "min": [
        -0.9861434102058411,
        -0.9641036987304688,
        0.1652025282382965
      ],
      "type": "VEC3"
    },
    {
      "bufferView": 1,
      "componentType": 5126,
      "count": 66,
      "max": [
        0.9894109964370728,
        0.9964359998703003
      ],
      "min": [
        0.33504199981689453,
        0.2030709981918335
      ],
      "type": "VEC2"
    },
    {
      "bufferView": 0,
      "componentType": 5125,
      "count": 102,
      "type": "SCALAR"
    },
    {
      "bufferView": 2,
      "byteOffset": 1584,
      "componentType": 5126,
      "count": 3265,
      "max": [
        4.008325099945068,
        4.782949924468994,
        7.985208034515381
      ],
      "min": [
        -3.9643940925598145,
        -8.449289321899414,
        2.0782439708709717
      ],
      "type": "VEC3"
    },
    {
      "bufferView": 2,
      "byteOffset": 40764,
      "componentType": 5126,
      "count": 3265,
      "max": [
        0.9999704360961914,
        1.0,
        1.0
      ],
      "min": [
        -0.9999696016311646,
        -1.0,
        -0.9991040825843811
      ],
      "type": "VEC3"
    },
    {
      "bufferView": 1,
      "byteOffset": 528,
      "componentType": 5126,
      "count": 3265,
      "max": [
        0.9992610216140747,
        0.9409369826316833
      ],
      "min": [
        0.27512800693511963,
        0.06118699908256531
      ],
      "type": "VEC2"
    },
    {
      "bufferView": 0,
      "byteOffset": 408,
      "componentType": 5125,
      "count": 4779,
      "type": "SCALAR"
    },
    {
      "bufferView": 2,
      "byteOffset": 79944,
      "componentType": 5126,
      "count": 131,
      "max": [
        3.5128591060638428,
        8.401630401611328,
        4.4964799880981445
      ],
      "min": [
        -3.4689431190490723,
        7.090371131896973,
        3.851931095123291
      ],
      "type": "VEC3"
    },
    {
      "bufferView": 2,
      "byteOffset": 81516,
      "componentType": 5126,
      "count": 131,
      "max": [
        0.7721284031867981,
        0.8673352003097534,
        0.8903842568397522
      ],
      "min": [
        -0.7721284031867981,
        0.32240158319473267,
        0.31398865580558777
      ],
      "type": "VEC3"
    },
    {
      "bufferView": 1,
      "byteOffset": 26648,
      "componentType": 5126,
      "count": 131,
      "max": [
        8.297459602355957,
        -2.9430999755859375
      ],
      "min": [
        7.702539920806885,
        -3.0569000244140625
      ],
      "type": "VEC2"
    },
    {
      "bufferView": 0,
      "byteOffset": 19524,
      "componentType": 5125,
      "count": 192,
      "type": "SCALAR"
    },
    {
      "bufferView": 2,
      "byteOffset": 83088,
      "componentType": 5126,
      "count": 1017,
      "max": [
        3.536406993865967,
        8.401543617248535,
        4.8599019050598145
      ],
      "min": [
        -3.4924919605255127,
        -8.825774192810059,
        2.46301007270813
      ],
      "type": "VEC3"
    },
    {
      "bufferView": 2,
      "byteOffset": 95292,
      "componentType": 5126,
      "count": 1017,
      "max": [
        0.9950041770935059,
        0.9925020337104797,
        0.9954333305358887
      ],
      "min": [
        -0.9950041770935059,
        -1.0,
        -0.9992235898971558
      ],
      "type": "VEC3"
    },
    {
      "bufferView": 1,
      "byteOffset": 27696,
      "componentType": 5126,
      "count": 1017,
      "max": [
        0.9953060150146484,
        0.9782969951629639
      ],
      "min": [
        0.029198000207543373,
        0.006558999884873629
      ],
      "type": "VEC2"
    },
    {
      "bufferView": 0,
      "byteOffset": 20292,
      "componentType": 5125,
      "count": 1458,
      "type": "SCALAR"
    },
    {
      "bufferView": 2,
      "byteOffset": 107496,
      "componentType": 5126,
      "count": 9493,
      "max": [
        3.7120189666748047,
        9.530856132507324,
        8.104662895202637
      ],
      "min": [
        -3.668102979660034,
        -8.965998649597168,
        2.064626932144165
      ],
      "type": "VEC3"
    },
    {
      "bufferView": 2,
      "byteOffset": 221412,
      "componentType": 5126,
      "count": 9493,
      "max": [
        1.0,
        0.9999687671661377,
        0.9999687671661377
      ],
      "min": [
        -1.0,
        -0.9999696016311646,
        -1.0
      ],
      "type": "VEC3"
    },
    {
      "bufferView": 1,
      "byteOffset": 35832,
      "componentType": 5126,
      "count": 9493,
      "max": [
        40.80059814453125,
        -20.204999923706055
      ],
      "min": [
        39.19940185546875,
        -21.80270004272461
      ],
      "type": "VEC2"
    },
    {
      "bufferView": 0,
      "byteOffset": 26124,
      "componentType": 5125,
      "count": 16362,
      "type": "SCALAR"
    },
    {
      "bufferView": 2,
      "byteOffset": 335328,
      "componentType": 5126,
      "count": 6052,
      "max": [
        4.10790491104126,
        9.148494720458984,
        7.979330062866211
      ],
      "min": [
        -4.064377784729004,
        -8.460926055908203,
        1.9337660074234009
      ],
      "type": "VEC3"
    },
    {
      "bufferView": 2,
      "byteOffset": 407952,
      "componentType": 5126,
      "count": 6052,
      "max": [
        1.0,
        1.0,
        1.0
      ],
      "min": [
        -1.0,
        -1.0,
        -1.0
      ],
      "type": "VEC3"
    },
    {
      "bufferView": 1,
      "byteOffset": 111776,
      "componentType": 5126,
      "count": 6052,
      "max": [
        28.7549991607666,
        5.256120204925537
      ],
      "min": [
        -1.942039966583252,
        -57.764198303222656
      ],
      "type": "VEC2"
    },
    {
      "bufferView": 0,
      "byteOffset": 91572,
      "componentType": 5125,
      "count": 16920,
      "type": "SCALAR"
    },
    {
      "bufferView": 2,
      "byteOffset": 480576,
      "componentType": 5126,
      "count": 440,
      "max": [
        3.5363929271698,
        8.099663734436035,
        4.859902858734131
      ],
      "min": [
        -3.4924769401550293,
        -8.025144577026367,
        2.4333128929138184
      ],
      "type": "VEC3"
    },
    {
      "bufferView": 2,
      "byteOffset": 485856,
      "componentType": 5126,
      "count": 440,
      "max": [
        0.9929590225219727,
        0.9917612075805664,
        0.7689282298088074
      ],
      "min": [
        -0.9929590225219727,
        -0.9954653978347778,
        -0.26790380477905273
      ],
      "type": "VEC3"
    },
    {
      "bufferView": 1,
      "byteOffset": 160192,
      "componentType": 5126,
      "count": 440,
      "max": [
        0.9853780269622803,
        0.6511139869689941
      ],
      "min": [
        0.2077459990978241,
        0.20813000202178955
      ],
      "type": "VEC2"
    },
    {
      "bufferView": 0,
      "byteOffset": 159252,
      "componentType": 5125,
      "count": 702,
      "type": "SCALAR"
    },
    {
      "bufferView": 2,
      "byteOffset": 491136,
      "componentType": 5126,
      "count": 393,
      "max": [
        3.2735159397125244,
        4.782948970794678,
        7.931728839874268
      ],
      "min": [
        -3.229599952697754,
        -7.484221935272217,
        5.654209136962891
      ],
      "type": "VEC3"
    },
    {
      "bufferView": 2,
      "byteOffset": 495852,
      "componentType": 5126,
      "count": 393,
      "max": [
        0.9675164818763733,
        0.5521048903465271,
        0.9954963326454163
      ],
      "min": [
        -0.9675164818763733,
        -0.7874916791915894,
        0.25170430541038513
      ],
      "type": "VEC3"
    },
    {
      "bufferView": 1,
      "byteOffset": 163712,
      "componentType": 5126,
      "count": 393,
      "max": [
        40.39659881591797,
        -36.46770095825195
      ],
      "min": [
        39.60340118408203,
        -37.46969985961914
      ],
      "type": "VEC2"
    },
    {
      "bufferView": 0,
      "byteOffset": 162060,
      "componentType": 5125,
      "count": 924,
      "type": "SCALAR"
    },
    {
      "bufferView": 2,
      "byteOffset": 500568,
      "componentType": 5126,
      "count": 6515,
      "max": [
        3.593187093734741,
        7.116195201873779,
        3.5251410007476807
      ],
      "min": [
        -3.544558048248291,
        -6.540778160095215,
        1.345494031906128
      ],
      "type": "VEC3"
    },
    {
      "bufferView": 2,
      "byteOffset": 578748,
      "componentType": 5126,
      "count": 6515,
      "max": [
        1.0,
        1.0,
        0.9947225451469421
      ],
      "min": [
        -1.0,
        -1.0,
        -0.9947225451469421
      ],
      "type": "VEC3"
    },
    {
      "bufferView": 1,
      "byteOffset": 166856,
      "componentType": 5126,
      "count": 6515,
      "max": [
        0.9916800260543823,
        0.9838879704475403
      ],
      "min": [
        0.03170900046825409,
        0.018366999924182892
      ],
      "type": "VEC2"
    },
    {
      "bufferView": 0,
      "byteOffset": 165756,
      "componentType": 5125,
      "count": 9912,
      "type": "SCALAR"
    },
    {
      "bufferView": 2,
      "byteOffset": 656928,
      "componentType": 5126,
      "count": 1772,
      "max": [
        3.5809009075164795,
        7.473581790924072,
        3.880599021911621
      ],
      "min": [
        -3.532257080078125,
        -6.898166179656982,
        0.9900239706039429
      ],
      "type": "VEC3"
    },
    {
      "bufferView": 2,
      "byteOffset": 678192,
      "componentType": 5126,
      "count": 1772,
      "max": [
        0.9995982050895691,
        0.9263303279876709,
        0.9210680723190308
      ],
      "min": [
        -0.9995982050895691,
        -0.9263303279876709,
        -0.9210593700408936
      ],
      "type": "VEC3"
    },
    {
      "bufferView": 1,
      "byteOffset": 218976,
      "componentType": 5126,
      "count": 1772,
      "max": [
        38.12540054321289,
        -18.87529945373535
      ],
      "min": [
        3.8745899200439453,
        -33.124698638916016
      ],
      "type": "VEC2"
    },
    {
      "bufferView": 0,
      "byteOffset": 205404,
      "componentType": 5125,
      "count": 2760,
      "type": "SCALAR"
    }
  ],
  "asset": {
    "extras": {
      "author": "Doz3 (https://sketchfab.com/Doz3)",
      "license": "CC-BY-4.0 (http://creativecommons.org/licenses/by/4.0/)",
      "source": "https://sketchfab.com/3d-models/chrysler-pt-cruiser-2003-c1852ad519a84f638665e4b535db643e",
      "title": "Chrysler PT Cruiser 2003"
    },
    "generator": "Sketchfab-16.34.0",
    "version": "2.0"
  },
  "bufferViews": [
    {
      "buffer": 0,
      "byteLength": 216444,
      "name": "floatBufferViews",
      "target": 34963
    },
    {
      "buffer": 0,
      "byteLength": 233152,
      "byteOffset": 216444,
      "byteStride": 8,
      "name": "floatBufferViews",
      "target": 34962
    },
    {
      "buffer": 0,
      "byteLength": 699456,
      "byteOffset": 449596,
      "byteStride": 12,
      "name": "floatBufferViews",
      "target": 34962
    }
  ],
  "buffers": [
    {
      "byteLength": 1149052,
      "uri": "scene.bin"
    }
  ],
  "images": [
    {
      "uri": "textures/Badges1Mtl.001_baseColor.png"
    },
    {
      "uri": "textures/Chrome1Mtl.001_baseColor.png"
    },
    {
      "uri": "textures/Lights1Mtl.001_baseColor.png"
    },
    {
      "uri": "textures/Rim1Mtl.001_baseColor.png"
    },
    {
      "uri": "textures/TaillightGlass1Mtl.001_baseColor.png"
    }
  ],
  "materials": [
    {
      "alphaMode": "BLEND",
      "doubleSided": true,
      "name": "Badges1Mtl.001",
      "pbrMetallicRoughness": {
        "baseColorTexture": {
          "index": 0
        },
        "metallicFactor": 0.0
      }
    },
    {
      "doubleSided": true,
      "name": "Chrome1Mtl.001",
      "pbrMetallicRoughness": {
        "baseColorTexture": {
          "index": 1
        },
        "metallicFactor": 0.0
      }
    },
    {
      "alphaMode": "BLEND",
      "doubleSided": true,
      "name": "HeadlightGlass1Mtl.001",
      "pbrMetallicRoughness": {
        "baseColorFactor": [
          0.383775,
          0.383775,
          0.348865,
          0.301961
        ],
        "metallicFactor": 0.0,
        "roughnessFactor": 0.9171131380322433
      }
    },
    {
      "alphaMode": "BLEND",
      "doubleSided": true,
      "name": "Lights1Mtl.001",
      "pbrMetallicRoughness": {
        "baseColorTexture": {
          "index": 2
        },
        "metallicFactor": 0.0
      }
    },
    {
      "doubleSided": true,
      "name": "Paint1Mtl.001",
      "pbrMetallicRoughness": {
        "baseColorFactor": [
          0.227307,
          0.224306,
          0.233367,
          1.0
        ],
        "metallicFactor": 0.0,
        "roughnessFactor": 0.9215637842048154
      }
    },
    {
      "doubleSided": true,
      "name": "Plastic1Mtl.001",
      "pbrMetallicRoughness": {
        "baseColorFactor": [
          0.051122,
          0.051122,
          0.041452,
          1.0
        ],
        "metallicFactor": 0.0
      }
    },
    {
      "doubleSided": true,
      "name": "Rim1Mtl.001",
      "pbrMetallicRoughness": {
        "baseColorTexture": {
          "index": 3
        },
        "metallicFactor": 0.0,
        "roughnessFactor": 0.7877916232696062
      }
    },
    {
      "alphaMode": "BLEND",
      "doubleSided": true,
      "name": "TaillightGlass1Mtl.001",
      "pbrMetallicRoughness": {
        "baseColorTexture": {
          "index": 4
        },
        "metallicFactor": 0.0,
        "roughnessFactor": 0.8635148194740101
      }
    },
    {
      "doubleSided": true,
      "name": "Tire1Mtl.001",
      "pbrMetallicRoughness": {
        "baseColorFactor": [
          0.009021,
          0.009021,
          0.009021,
          1.0
        ],
        "metallicFactor": 0.0
      }
    },
    {
      "alphaMode": "BLEND",
      "doubleSided": true,
      "name": "Windows1Mtl.002",
      "pbrMetallicRoughness": {
        "baseColorFactor": [
          0.0,
          0.0,
          0.0,
          0.8620637116306771
        ],
        "metallicFactor": 0.0,
        "roughnessFactor": 0.02047372296753023
      }
    }
  ],
  "meshes": [
    {
      "name": "Object_0",
      "primitives": [
        {
          "attributes": {
            "NORMAL": 1,
            "POSITION": 0,
            "TEXCOORD_0": 2
          },
          "indices": 3,
          "material": 0,
          "mode": 4
        }
      ]
    },
    {
      "name": "Object_1",
      "primitives": [
        {
          "attributes": {
            "NORMAL": 5,
            "POSITION": 4,
            "TEXCOORD_0": 6
          },
          "indices": 7,
          "material": 1,
          "mode": 4
        }
      ]
    },
    {
      "name": "Object_2",
      "primitives": [
        {
          "attributes": {
            "NORMAL": 9,
            "POSITION": 8,
            "TEXCOORD_0": 10
          },
          "indices": 11,
          "material": 2,
          "mode": 4
        }
      ]
    },
    {
      "name": "Object_3",
      "primitives": [
        {
          "attributes": {
            "NORMAL": 13,
            "POSITION": 12,
            "TEXCOORD_0": 14
          },
          "indices": 15,
          "material": 3,
          "mode": 4
        }
      ]
    },
    {
      "name": "Object_4",
      "primitives": [
        {
          "attributes": {
            "NORMAL": 17,
            "POSITION": 16,
            "TEXCOORD_0": 18
          },
          "indices": 19,
          "material": 4,
          "mode": 4
        }
      ]
    },
    {
      "name": "Object_5",
      "primitives": [
        {
          "attributes": {
            "NORMAL": 21,
            "POSITION": 20,
            "TEXCOORD_0": 22
          },
          "indices": 23,
          "material": 5,
          "mode": 4
        }
      ]
    },
    {
      "name": "Object_6",
      "primitives": [
        {
          "attributes": {
            "NORMAL": 25,
            "POSITION": 24,
            "TEXCOORD_0": 26
          },
          "indices": 27,
          "material": 7,
          "mode": 4
        }
      ]
    },
    {
      "name": "Object_7",
      "primitives": [
        {
          "attributes": {
            "NORMAL": 29,
            "POSITION": 28,
            "TEXCOORD_0": 30
          },
          "indices": 31,
          "material": 9,
          "mode": 4
        }
      ]
    },
    {
      "name": "Object_8",
      "primitives": [
        {
          "attributes": {
            "NORMAL": 33,
            "POSITION": 32,
            "TEXCOORD_0": 34
          },
          "indices": 35,
          "material": 6,
          "mode": 4
        }
      ]
    },
    {
      "name": "Object_9",
      "primitives": [
        {
          "attributes": {
            "NORMAL": 37,
            "POSITION": 36,
            "TEXCOORD_0": 38
          },
          "indices": 39,
          "material": 8,
          "mode": 4
        }
      ]
    }
  ],
  "nodes": [
    {
      "children": [
        1
      ],
      "matrix": [
        1.0,
        0.0,
        0.0,
        0.0,
        0.0,
        2.220446049250313e-16,
        -1.0,
        0.0,
        0.0,
        1.0,
        2.220446049250313e-16,
        0.0,
        0.0,
        0.0,
        0.0,
        1.0
      ],
      "name": "Sketchfab_model"
    },
    {
      "children": [
        2,
        3,
        4,
        5,
        6,
        7,
        8,
        9,
        10,
        11
      ],
      "name": "PTcruiser.obj.cleaner.materialmerger.gles"
    },
    {
      "mesh": 0,
      "name": "Object_2"
    },
    {
      "mesh": 1,
      "name": "Object_3"
    },
    {
      "mesh": 2,
      "name": "Object_4"
    },
    {
      "mesh": 3,
      "name": "Object_5"
    },
    {
      "mesh": 4,
      "name": "Object_6"
    },
    {
      "mesh": 5,
      "name": "Object_7"
    },
    {
      "mesh": 6,
      "name": "Object_8"
    },
    {
      "mesh": 7,
      "name": "Object_9"
    },
    {
      "mesh": 8,
      "name": "Object_10"
    },
    {
      "mesh": 9,
      "name": "Object_11"
    }
  ],
  "samplers": [
    {
      "magFilter": 9729,
      "minFilter": 9987,
      "wrapS": 10497,
      "wrapT": 10497
    }
  ],
  "scene": 0,
  "scenes": [
    {
      "name": "Sketchfab_Scene",
      "nodes": [
        0
      ]
    }
  ],
  "textures": [
    {
      "sampler": 0,
      "source": 0
    },
    {
      "sampler": 0,
      "source": 1
    },
    {
      "sampler": 0,
      "source": 2
    },
    {
      "sampler": 0,
      "source": 3
    },
    {
      "sampler": 0,
      "source": 4
    }
  ]
}
